<?xml version="1.0" standalone="no"?>
<!DOCTYPE svg PUBLIC "-//W3C//DTD SVG 20010904//EN"
 "http://www.w3.org/TR/2001/REC-SVG-20010904/DTD/svg10.dtd">
<svg version="1.0" xmlns="http://www.w3.org/2000/svg"
 width="109.000000pt" height="109.000000pt" viewBox="0 0 109.000000 109.000000"
 preserveAspectRatio="xMidYMid meet">
<metadata>
Created by potrace 1.14, written by Peter Selinger 2001-2017
</metadata>
<g transform="translate(0.000000,109.000000) scale(0.100000,-0.100000)"
fill="#000000" stroke="none">
<path d="M507 902 c-21 -23 -22 -60 -2 -82 15 -17 22 -82 24 -222 1 -62 4 -78
16 -78 8 0 15 1 16 3 0 1 3 62 5 136 5 113 8 138 25 159 24 32 24 57 -1 82
-25 25 -62 26 -83 2z"/>
<path d="M320 863 c-19 -9 -78 -30 -130 -48 -85 -29 -92 -33 -72 -44 12 -6 43
-13 69 -16 26 -3 55 -5 63 -6 8 -1 28 -11 43 -21 18 -13 39 -19 58 -16 16 3
29 2 29 -2 0 -13 51 -30 89 -30 l37 0 0 49 c-1 46 -4 51 -39 75 -21 15 -48 37
-61 51 -27 29 -38 30 -86 8z"/>
<path d="M681 846 c-19 -19 -47 -40 -62 -47 -27 -11 -29 -15 -29 -65 l0 -54
35 0 c20 0 50 8 68 17 18 9 42 16 55 14 13 -1 35 5 50 15 30 20 34 21 114 30
90 10 92 28 7 54 -39 11 -95 32 -124 46 -30 13 -60 24 -67 24 -8 0 -29 -15
-47 -34z"/>
<path d="M440 633 c-61 -22 -80 -96 -34 -132 24 -19 27 -19 61 -3 l35 17 -32
6 c-39 8 -53 21 -44 42 4 13 10 14 24 7 13 -7 24 -5 41 9 23 19 24 19 5 40
-19 21 -29 24 -56 14z"/>
<path d="M596 621 c-16 -18 -16 -20 5 -40 17 -15 26 -18 41 -10 14 8 20 6 25
-6 9 -26 -16 -40 -100 -58 -105 -22 -131 -36 -135 -70 -5 -40 20 -63 81 -77
81 -18 87 -21 87 -33 0 -7 -21 -24 -45 -39 -60 -36 -60 -70 -1 -92 15 -5 13
-1 -7 18 -15 14 -27 28 -27 31 0 3 23 19 51 36 73 45 66 67 -31 99 -59 20 -76
30 -78 46 -3 23 28 35 133 50 80 11 85 12 101 28 37 38 22 100 -31 121 -44 19
-48 19 -69 -4z"/>
<path d="M537 443 c-7 -16 -1 -46 11 -50 8 -3 12 6 12 26 0 28 -13 42 -23 24z"/>
<path d="M540 320 c0 -19 3 -21 12 -12 9 9 9 15 0 24 -9 9 -12 7 -12 -12z"/>
<path d="M540 240 c0 -5 5 -10 11 -10 5 0 7 5 4 10 -3 6 -8 10 -11 10 -2 0 -4
-4 -4 -10z"/>
<path d="M540 165 c0 -8 4 -15 8 -15 5 0 9 7 9 15 0 8 -4 15 -9 15 -4 0 -8 -7
-8 -15z"/>
</g>
</svg>
